<mxfile host="app.diagrams.net" modified="2024-02-25T15:48:57.509Z" agent="Mozilla/5.0 (Windows NT 10.0; Win64; x64) AppleWebKit/537.36 (KHTML, like Gecko) Chrome/122.0.0.0 Safari/537.36 Edg/122.0.0.0" etag="gFRLf9hM7sNRqnamKH0e" version="23.1.6" type="github">
  <diagram name="Страница — 1" id="-RJ8XjTNM2Y-rSkJlWRs">
    <mxGraphModel dx="1206" dy="719" grid="1" gridSize="10" guides="1" tooltips="1" connect="1" arrows="1" fold="1" page="1" pageScale="1" pageWidth="827" pageHeight="1169" math="0" shadow="0">
      <root>
        <mxCell id="0" />
        <mxCell id="1" parent="0" />
        <mxCell id="a0f-AzLng8j4MmimPBk6-19" value="" style="whiteSpace=wrap;html=1;aspect=fixed;" vertex="1" parent="1">
          <mxGeometry x="100" width="560" height="560" as="geometry" />
        </mxCell>
        <mxCell id="a0f-AzLng8j4MmimPBk6-1" value="&lt;div style=&quot;&quot;&gt;&lt;br&gt;&lt;/div&gt;" style="rounded=1;whiteSpace=wrap;html=1;rotation=90;align=left;fillColor=#dae8fc;strokeColor=#6c8ebf;" vertex="1" parent="1">
          <mxGeometry x="36.370000000000005" y="160" width="281.25" height="122.5" as="geometry" />
        </mxCell>
        <mxCell id="a0f-AzLng8j4MmimPBk6-12" style="edgeStyle=orthogonalEdgeStyle;rounded=0;orthogonalLoop=1;jettySize=auto;html=1;" edge="1" parent="1">
          <mxGeometry relative="1" as="geometry">
            <mxPoint x="383" y="90" as="targetPoint" />
            <mxPoint x="380" y="90" as="sourcePoint" />
          </mxGeometry>
        </mxCell>
        <mxCell id="a0f-AzLng8j4MmimPBk6-2" value="" style="rounded=1;whiteSpace=wrap;html=1;rotation=90;labelPosition=center;verticalLabelPosition=top;align=center;verticalAlign=bottom;labelBorderColor=none;fillColor=#e1d5e7;strokeColor=#9673a6;" vertex="1" parent="1">
          <mxGeometry x="250.99" y="156.28" width="280" height="120" as="geometry" />
        </mxCell>
        <mxCell id="a0f-AzLng8j4MmimPBk6-3" value="" style="rounded=1;whiteSpace=wrap;html=1;rotation=90;fillColor=#f5f5f5;fontColor=#333333;strokeColor=#666666;" vertex="1" parent="1">
          <mxGeometry x="443.64" y="152.84" width="274.62" height="126.88" as="geometry" />
        </mxCell>
        <mxCell id="a0f-AzLng8j4MmimPBk6-4" value="" style="shape=image;html=1;verticalAlign=bottom;verticalLabelPosition=top;labelBackgroundColor=#ffffff;imageAspect=0;aspect=fixed;image=https://cdn0.iconfinder.com/data/icons/logos-microsoft-office-365/128/Microsoft_Office-02-128.png;labelPosition=center;align=center;" vertex="1" parent="1">
          <mxGeometry x="145.49" y="188.5" width="63" height="63" as="geometry" />
        </mxCell>
        <mxCell id="a0f-AzLng8j4MmimPBk6-5" value="" style="shape=image;html=1;verticalAlign=bottom;verticalLabelPosition=top;labelBackgroundColor=#ffffff;imageAspect=0;aspect=fixed;image=https://cdn0.iconfinder.com/data/icons/logos-microsoft-office-365/128/Microsoft_Office-02-128.png;fontFamily=Verdana;labelPosition=center;align=center;direction=south;rotation=-90;" vertex="1" parent="1">
          <mxGeometry x="552.95" y="130" width="53" height="53" as="geometry" />
        </mxCell>
        <mxCell id="a0f-AzLng8j4MmimPBk6-6" value="" style="shape=image;html=1;verticalAlign=top;verticalLabelPosition=bottom;labelBackgroundColor=#ffffff;imageAspect=0;aspect=fixed;image=https://cdn0.iconfinder.com/data/icons/logos-microsoft-office-365/128/Microsoft_Office-02-128.png" vertex="1" parent="1">
          <mxGeometry x="361.87" y="191.75" width="58.25" height="58.25" as="geometry" />
        </mxCell>
        <mxCell id="a0f-AzLng8j4MmimPBk6-9" value="" style="shape=image;html=1;verticalAlign=top;verticalLabelPosition=bottom;labelBackgroundColor=#ffffff;imageAspect=0;aspect=fixed;image=https://cdn3.iconfinder.com/data/icons/document-icons-2/30/647719-word-128.png" vertex="1" parent="1">
          <mxGeometry x="556.45" y="197.25" width="48" height="48" as="geometry" />
        </mxCell>
        <mxCell id="a0f-AzLng8j4MmimPBk6-10" value="" style="sketch=0;aspect=fixed;pointerEvents=1;shadow=0;dashed=0;html=1;strokeColor=none;labelPosition=center;verticalLabelPosition=bottom;verticalAlign=top;align=center;shape=mxgraph.mscae.other.powerpoint;fillColor=#DE5D24;" vertex="1" parent="1">
          <mxGeometry x="554.45" y="276.28" width="50" height="50" as="geometry" />
        </mxCell>
        <mxCell id="a0f-AzLng8j4MmimPBk6-14" value="Source Layer" style="rounded=0;whiteSpace=wrap;html=1;" vertex="1" parent="1">
          <mxGeometry x="140.49" y="90" width="73.01" height="30" as="geometry" />
        </mxCell>
        <mxCell id="a0f-AzLng8j4MmimPBk6-15" value="Storage Layer" style="rounded=0;whiteSpace=wrap;html=1;" vertex="1" parent="1">
          <mxGeometry x="361.87" y="90" width="58.13" height="30" as="geometry" />
        </mxCell>
        <mxCell id="a0f-AzLng8j4MmimPBk6-16" value="Business Layer" style="rounded=0;whiteSpace=wrap;html=1;" vertex="1" parent="1">
          <mxGeometry x="549.17" y="90" width="60.55" height="30" as="geometry" />
        </mxCell>
      </root>
    </mxGraphModel>
  </diagram>
</mxfile>
